# xmcd
#
# Track frame offsets:
#	150
#	23961
#	39359
#	59414
#	76363
#
# Disc length: 1307 seconds
# Revision: 0
# Processed by: cddbd v1.5.2PL0 Copyright (c) Steve Scherf et al.
# Submitted via: dBpowerAMP V12.0
#
DISCID=36051905
DTITLE=Infamous Stringdusters - Undercover
DYEAR=2015
DGENRE=Alt Country
TTITLE0=Big River
TTITLE1=Highwayman
TTITLE2=Don't Think Twice, It's All Right
TTITLE3=Fearless
TTITLE4=American Girl
EXTD=
EXTT0=
EXTT1=
EXTT2=
EXTT3=
EXTT4=
PLAYORDER=
